Patient4_TMGait_0pt4_03_right_09_EMG.mot
version=1
nRows=19
nColumns=33
inDegrees=no
endheader
time	1LAddLong	2LGlutMax	3LGlutMed	4LIliopsoas	5LSemiMemb	6LBicFemLong	7LRecFem	8LVastMed	9LVastLat	10LGasMed	11LTibAnt	12lTibPost	13LPeroneusLong	14LSol	15LExtDigLong	16LFlexDigLong	17RAddLong	18RGlutMax	19RGlutMed	20RIliopsoas	21RSemiMemb	22RBicFemLong	23RRecFem	24RVastMed	25RVastLat	26RGasMed	27RTibAnt	28RTibPost	29RPeroneusLong	30RSol	31RExtDigLong	32RFlexDigLong
12.15	0.001984	-0.028229	0.13641	0.019531	0.012054	-0.011902	0.003662	-0.008545	0.12421	0.050964	0.003662	0.000305	-0.11139	-0.039063	-0.039673	0.012817	0.073547	-0.13275	-0.55832	-0.032043	-0.018005	-0.044556	0.025635	-0.14969	0.003662	0.15381	0.17303	0.000305	0.30914	-0.048218	-0.004272	0.003204
12.151	-0.003204	-0.029449	0.021362	0.005341	0.018158	0.003815	-0.008545	-0.009308	0.13367	0.033722	-0.019531	0.014954	-0.1445	-0.1062	0.007935	0.007019	0.026855	-0.098572	-0.66559	-0.19806	-0.23804	-0.014343	-0.014954	-0.12787	-0.015259	0.17136	0.30777	-0.003967	0.31723	-0.090637	-0.005493	0.006256
12.152	0.001678	-0.055542	-0.048523	-0.008087	0.00824	0.032501	-0.088806	-0.013885	-0.061798	0.00885	-0.039368	0.000305	-0.061798	-0.11826	0.023041	-0.011444	-0.025024	-0.061188	-0.48584	-0.21316	-0.008545	0.041199	0.002289	0.001831	0.015106	0.1799	0.27344	-0.001984	-0.15121	-0.077209	-0.00412	0.003662
12.153	-0.004883	-0.045166	-0.045471	-0.018005	0.011749	0.022888	-0.052795	-0.018005	-0.064545	0	-0.047302	0.019073	-0.25253	0.020752	-0.008545	0.006866	-0.055542	-0.049286	0.13062	-0.083008	-0.11475	0.19348	-0.044861	0.035553	0.014648	0.17838	0.26825	-0.007477	-0.062866	-0.056915	-0.006714	-0.000153
12.154	-0.006714	-0.010681	0.045471	0.013428	0.018463	0.005951	0.027618	-0.01297	-0.032043	-0.006104	0.002136	-0.005035	-0.03479	0.040741	-0.0383	0.000305	-0.050354	-0.084076	0.28915	0.10239	-0.15488	0.19913	0.008392	-0.001373	0.011902	0.16937	0.12528	-0.002289	-0.24765	-0.045624	-0.005646	0.001221
12.155	0.003204	-0.032043	0.12878	0.040436	0.015869	0.000458	0.026093	-0.011444	0.00351	-0.001221	0.11383	0.029449	0.14206	-0.019379	-0.027008	-0.002747	-0.053253	-0.10452	0.001068	0.29114	0.006256	0.1152	0.014648	0.036926	-0.006409	0.15869	-0.63355	-0.00061	-0.44113	-0.059204	-0.00824	-0.002136
12.156	0.015869	-0.045776	0.084839	0.021515	0.014954	-0.001068	0.042419	-0.009155	0.036926	0.011139	0.15396	0.024719	0.12466	-0.006866	-0.021973	0.004883	-0.032043	-0.13184	-0.06546	0.30884	-0.016785	0.089417	0.03067	-0.005951	-0.006866	0.14999	-0.32211	-0.007172	-0.28442	-0.052185	-0.006104	0.007629
12.157	0.008087	-0.054474	0.071106	0.020905	0.019379	0.012512	0.072327	-0.047455	0.056458	-0.003815	0.18692	0.021667	0.04364	0.076447	0.31128	0.005188	-0.022583	-0.10819	0.017242	0.13275	0.15366	0.034332	-0.005035	-0.038147	-0.000458	0.13489	-0.085907	-0.004272	0.54047	0.039368	-0.006561	0.004883
12.158	0.001373	-0.060577	0.037994	0.020294	0.006866	-0.014191	0.088348	-0.002899	0.027924	-0.036469	0.072632	-0.003967	0.089874	0.10147	0.16602	0.014496	-0.010223	-0.13168	-0.3421	0.013123	0.076752	0.003357	0.047913	-0.04364	-0.003052	0.11612	-0.31799	0.001984	0.75165	0.022888	-0.003815	0.003967
12.159	-0.003815	-0.061798	0.041199	0.018463	0.012512	0.006104	0.1088	0.021973	0.020905	-0.018463	-0.14145	0.009003	0.033264	0.15106	0.018463	-0.003815	-0.012207	-0.093079	-0.088959	-0.06546	-0.022888	0.019073	-0.033875	-0.018616	-0.009918	0.10452	-0.29633	-0.002594	-0.13825	-0.03891	-0.004883	0.007172
12.16	-0.000305	-0.059814	0.039368	0.004272	0.0177	-0.009308	0.12817	0.007477	0.01236	-0.026093	-0.14969	0.016022	0.05188	0.18295	0.092621	-0.014496	-0.011292	-0.077972	-0.053558	-0.023499	-0.017395	0.040588	0.010071	-0.05188	0.003204	0.080872	-0.13718	0.000458	-0.27084	0.043488	-0.011444	0.002594
12.161	0.009308	-0.047913	0.093689	-0.004272	0.013428	-0.012054	0.11017	0.002899	0.03891	-0.046539	-0.084229	0.016937	0.007019	0.19623	-0.13214	-0.007019	-0.006104	-0.061188	0.18494	0.014954	0.014648	0.033875	0.05127	-0.12207	0.005341	0.062714	-0.25665	0.001068	0.50034	0.062866	-0.001678	0.010376
12.162	0.005798	-0.02594	0.08728	-0.00351	0.017395	-0.018463	0.060272	0.00885	0.035095	-0.040588	-0.061798	0.001068	0.11643	0.097656	-0.13306	0.004578	0.000916	-0.13886	-0.28931	0.022888	0.024261	0.034027	0.021515	-0.070496	-0.003662	0.043488	-0.33646	-0.005951	0.39963	0.04425	-0.006561	0.013275
12.163	0.006561	-0.033264	0.10544	-0.008698	0.018616	0.000153	0.04364	0.007629	0.04715	-0.029602	-0.079193	0.010223	0.2385	0.055847	-0.10407	0.010376	0.002289	-0.11368	-0.37125	-0.053253	0.009918	0.033569	0.034485	-0.0737	-0.013123	0.02182	-0.19852	-0.003204	0.29098	-0.034637	0.000916	0.013275
12.164	-0.003357	-0.049286	0.078278	0.001373	0.01709	0.009308	0.037231	-0.00412	0.075684	-0.007782	-0.022125	0.007477	0.31845	0.062408	-0.029602	0.013428	-0.003815	-0.10757	0.087433	-0.1004	-0.004425	0.057068	0.007477	-0.095367	-0.000305	0.006409	-0.027313	-0.004578	0.11871	-0.04425	-0.006104	0.009918
12.165	0.003357	-0.054016	0.057831	0.016479	0.013428	-0.007172	-0.071869	-0.018616	-0.065765	-0.017395	0.062103	-0.00473	0.073853	0.018158	-0.003815	0.003815	0.002289	-0.098114	0.26367	-0.12863	-0.013428	0.051727	-0.029907	-0.028839	-0.007172	-0.01709	0.077209	0	0.068665	-0.031738	-0.002136	0.003815
12.166	0.010223	-0.065765	0.061493	0.014801	0.021362	0.00473	-0.084991	-0.019379	-0.02594	-0.00473	0.087433	0.018463	-0.38681	-0.001526	-0.26184	-0.000763	0.005035	-0.15671	0.38361	-0.078278	-0.012207	0.044556	-0.00824	-0.046692	-0.001831	-0.029602	0.12909	-0.002594	0.033417	-0.021057	-0.004578	0.008087
12.167	-0.002747	-0.064392	0.095825	0.020599	0.017395	0.011292	-0.093994	-0.011902	0.000305	-0.002136	-0.004578	-0.004425	-0.26916	0.024414	0.066223	-0.002289	0.002289	-0.13016	0.22064	0.10132	-0.01236	0.041046	-0.039825	-0.050964	0.004425	-0.034485	0.16632	-0.00412	0.20371	0.013428	-0.00412	-0.002136
12.168	-0.000153	-0.097961	0.028992	0.023651	0.0177	0.025024	-0.063171	-0.005798	0.034637	0.012512	-0.006409	0.014801	-0.034485	-0.0177	-0.06134	-0.005493	0.005646	-0.21912	0.06134	0.14511	-0.018311	0.032806	-0.031738	-0.040131	0.004578	-0.048065	0.1857	-0.005341	-0.22201	0.035553	-0.007019	0.004883
